<svg width="24" height="24" viewBox="0 0 24 24" fill="none" xmlns="http://www.w3.org/2000/svg">
<path d="M21.64 13C21.4957 12.8807 21.3207 12.8043 21.1351 12.7795C20.9494 12.7548 20.7606 12.7827 20.59 12.86C19.5326 13.3439 18.3829 13.5929 17.22 13.59C15.0689 13.5874 13.006 12.7344 11.4812 11.2171C9.95632 9.69976 9.09321 7.64111 9.08001 5.49C9.08457 4.81583 9.16848 4.14454 9.33001 3.49C9.36429 3.31554 9.35143 3.13509 9.29277 2.96725C9.2341 2.79941 9.13175 2.65025 8.99626 2.53513C8.86076 2.42001 8.69702 2.3431 8.52191 2.31231C8.3468 2.28153 8.16665 2.29799 8.00001 2.36C6.43234 3.06491 5.06958 4.15676 4.03977 5.53298C3.00996 6.9092 2.34689 8.52462 2.11286 10.2275C1.87883 11.9303 2.08152 13.6647 2.70188 15.2678C3.32225 16.8708 4.33993 18.2898 5.65931 19.3915C6.9787 20.4932 8.55649 21.2414 10.2445 21.5658C11.9324 21.8903 13.6752 21.7803 15.309 21.2462C16.9428 20.7122 18.414 19.7716 19.5844 18.5128C20.7548 17.254 21.5861 15.7183 22 14.05C22.0504 13.859 22.0431 13.6573 21.9791 13.4705C21.915 13.2836 21.797 13.1199 21.64 13ZM12.14 19.69C10.4618 19.6782 8.82821 19.1479 7.46301 18.1717C6.0978 17.1956 5.06768 15.8213 4.5137 14.2371C3.95971 12.6529 3.90895 10.9362 4.36835 9.322C4.82776 7.70782 5.77487 6.2751 7.08001 5.22V5.49C7.08266 8.17848 8.15183 10.7561 10.0529 12.6571C11.9539 14.5582 14.5315 15.6274 17.22 15.63C17.9259 15.6326 18.63 15.5588 19.32 15.41C18.6299 16.7155 17.5965 17.8078 16.3312 18.5691C15.0659 19.3304 13.6167 19.7318 12.14 19.73V19.69Z" fill="black"/>
</svg>
