<svg id="Laag_1" data-name="Laag 1" xmlns="http://www.w3.org/2000/svg" xmlns:xlink="http://www.w3.org/1999/xlink" width="143.1mm" height="69.8mm" viewBox="0 0 405.8 198"><defs><clipPath id="clip-path" transform="translate(0 0)"><rect x="-27.8" width="518.7" height="205.45" style="fill:none"/></clipPath></defs><title>mrfix-logo-en</title><polygon points="86.2 0.6 56.5 48.4 26.8 0.6 0 0.6 0 113.6 24.4 113.6 24.4 40.3 55.9 88.1 56.5 88.1 88.3 39.8 88.3 113.6 113 113.6 113 0.6 86.2 0.6" style="fill:#fff"/><g style="clip-path:url(#clip-path)"><path d="M119.8,27.1h24.5V44.5c5-11.9,13.1-19.7,27.6-19V51.1h-1.3c-16.3,0-26.3,9.8-26.3,30.5v32H119.8Z" transform="translate(0 0)" style="fill:#fff"/></g><polygon points="381.5 35.6 366.8 58.3 352.2 35.6 328.5 35.6 354.8 74 327.5 113.6 350.6 113.6 366.3 89.3 382 113.6 405.8 113.6 378.3 73.6 404.6 35.6 381.5 35.6" style="fill:#fff"/><g style="clip-path:url(#clip-path)"><path d="M259.5,1.5V22.9a1.5,1.5,0,0,0,1.5,1.5h13.2a1.5,1.5,0,0,0,1.5-1.5V19.2c1.5-1.3,4.1-2.1,5.6-1.7a16.1,16.1,0,0,1,7.6,6.4c1.7,3,1.6,7.1,1.6,16.8l-2,.5a2.4,2.4,0,0,0-1.8,2.3s-.1,1.7-.1,17.9c0,24.1-2.7,51.1-2.7,51.1a1.5,1.5,0,0,0,1.5,1.5h21.4a1.5,1.5,0,0,0,1.5-1.5s-2.8-27-2.8-51.1c0-16.3-.1-17.9-.1-17.9a2.6,2.6,0,0,0-1.8-2.3l-1.7-.5c0-10.9,1-14.7,5.4-18.7s10.5-5,16.2-4.4,12.8,8.8,14.7,11.4,2.6-.6,2.5-2.8c-.2-4.2-5.7-15.4-18.4-20.7a68.9,68.9,0,0,0-26-5.5,63.2,63.2,0,0,0-9.6.8c-2.9.5-4,4.7-6.6,4.7S276.8,4,275.8,3V1.5A1.5,1.5,0,0,0,274.3,0H261a1.5,1.5,0,0,0-1.5,1.5" transform="translate(0 0)" style="fill:#fff"/></g><polygon points="178.1 0.6 178.1 113.6 203 113.6 203 69.9 253 69.9 253 47.3 203 47.3 203 23.2 253.1 23.2 253.1 0.6 178.1 0.6" style="fill:#fff"/><path d="M.2,142.2h19c5.6,0,10,1.7,12.8,4.5a11.9,11.9,0,0,1,3.4,8.4h0c0,7.6-5.6,11.9-13.3,12.9l15,19.4H32.9L18.4,168.7H3.6v18.8H.2Zm18.6,23.5c7.6,0,13.2-3.8,13.2-10.4h0c0-6.1-4.8-9.9-13-9.9H3.6v20.4Z" transform="translate(0 0)" style="fill:#fff"/><path d="M46.4,141.5h3.9v4.3H46.4Zm.4,12.9h3.2v33H46.8Z" transform="translate(0 0)" style="fill:#fff"/><path d="M61.8,192.9l1.9-2.6A21.6,21.6,0,0,0,77,195c7.6,0,12.9-4.3,12.9-12.8v-4.8c-2.8,4.1-7.3,7.6-13.8,7.6S60.3,179,60.3,169.5h0a15.7,15.7,0,0,1,15.9-15.7A16.4,16.4,0,0,1,90,161.1v-6.6h3.2v27.9c0,4.8-1.6,8.5-4.2,11.2s-7.1,4.4-12,4.4A24.9,24.9,0,0,1,61.8,192.9Zm28.4-23.5h0c0-7.6-6.8-12.6-13.7-12.6s-12.8,4.8-12.8,12.5h0A12.5,12.5,0,0,0,76.5,182C83.4,182,90.1,176.9,90.1,169.4Z" transform="translate(0 0)" style="fill:#fff"/><path d="M105.2,140.2h3.2v20.4a12.9,12.9,0,0,1,11.9-6.9c8.4,0,13.2,5.7,13.2,13.6v20.2h-3.2V167.9c0-6.8-3.8-11.3-10.5-11.3s-11.5,4.9-11.5,11.8v19.1h-3.2Z" transform="translate(0 0)" style="fill:#fff"/><path d="M146.6,179V157.4h-4.8v-2.9h4.8V143.9h3.2v10.6h11.6v2.9H149.8v21.3c0,4.7,2.8,6.4,6.6,6.4a11.1,11.1,0,0,0,4.9-1.2v3a12.1,12.1,0,0,1-5.4,1.2C150.7,188.1,146.6,185.3,146.6,179Z" transform="translate(0 0)" style="fill:#fff"/><path d="M195.7,145.4l-8.7,3-.9-2.7,10.4-3.8H199v45.6h-3.3Z" transform="translate(0 0)" style="fill:#fff"/><path d="M207.2,163.5l1.1-1.5a11.3,11.3,0,0,0,6.9,2.5c2.6,0,4.6-1.4,4.6-3.7h0c0-2.3-2.4-3.1-5.1-3.8s-6.6-1.8-6.6-5.3h0c0-3.1,2.6-5.3,6.3-5.3a13,13,0,0,1,6.8,2.1l-1,1.5a11.1,11.1,0,0,0-5.9-1.9c-2.6,0-4.4,1.4-4.4,3.4h0c0,2.2,2.6,2.9,5.4,3.7s6.3,2,6.3,5.4h0c0,3.4-2.9,5.6-6.6,5.6A13.2,13.2,0,0,1,207.2,163.5Z" transform="translate(0 0)" style="fill:#fff"/><path d="M228.6,161V148.4h-2.8v-1.7h2.8v-6.2h1.8v6.2h6.8v1.7h-6.8v12.4c0,2.8,1.6,3.7,3.8,3.7a6.5,6.5,0,0,0,2.8-.7v1.7a7.1,7.1,0,0,1-3.1.7C231,166.3,228.6,164.7,228.6,161Z" transform="translate(0 0)" style="fill:#fff"/><path d="M261.7,179V157.4h-4.8v-2.9h4.8V143.9h3.2v10.6h11.6v2.9H264.9v21.3c0,4.7,2.8,6.4,6.6,6.4a11.1,11.1,0,0,0,4.9-1.2v3a12.1,12.1,0,0,1-5.4,1.2C265.9,188.1,261.7,185.3,261.7,179Z" transform="translate(0 0)" style="fill:#fff"/><path d="M285.9,141.5h3.9v4.3h-3.9Zm.4,12.9h3.2v33h-3.2Z" transform="translate(0 0)" style="fill:#fff"/><path d="M302,154.5h3.2v5.9c2.1-3.4,5.1-6.7,11-6.7a11.9,11.9,0,0,1,11.1,7.1c2.1-3.7,5.7-7.1,11.9-7.1,7.8,0,12.7,5.5,12.7,13.8v20h-3.2V167.9c0-7.1-3.7-11.3-9.8-11.3s-10.4,4.3-10.4,11.7v19.2h-3.2V167.7c0-6.9-3.8-11.1-9.6-11.1s-10.6,5.2-10.6,11.8v19H302Z" transform="translate(0 0)" style="fill:#fff"/><path d="M361.3,171.1h0c0-9.6,6.7-17.2,15.7-17.2s15.2,7.5,15.2,17.3a8.2,8.2,0,0,1-.1,1.3H364.6c.6,8.2,6.5,13,12.9,13a14.8,14.8,0,0,0,11.3-5.2l2.2,1.9c-3.4,3.6-7.3,6.2-13.7,6.2C368.8,188.3,361.3,181.3,361.3,171.1Zm27.4-1.6c-.5-6.7-4.3-12.8-11.8-12.8s-11.6,5.5-12.2,12.8Z" transform="translate(0 0)" style="fill:#fff"/><path d="M400.6,182h4.3v5.5h-4.3Z" transform="translate(0 0)" style="fill:#fff"/></svg>