<?xml version="1.0" encoding="iso-8859-1"?>
<!-- Generator: Adobe Illustrator 19.0.0, SVG Export Plug-In . SVG Version: 6.00 Build 0)  -->
<svg version="1.1" id="Layer_1" xmlns="http://www.w3.org/2000/svg" xmlns:xlink="http://www.w3.org/1999/xlink" x="0px" y="0px"
	 viewBox="0 0 512 512" style="enable-background:new 0 0 512 512;" xml:space="preserve">
<g>
	<g>
		<path d="M384,230.4h-80.179c-5.137-20.019-16.068-37.419-30.754-50.586v-43.281h15.932c10.035,0,18.202-8.158,18.202-18.193
			V86.468c0-10.035-8.166-18.202-18.202-18.202h-15.932V18.202C273.067,8.166,264.9,0,254.865,0H154.726
			c-10.027,0-18.193,8.166-18.193,18.202v50.065h-15.94c-10.027,0-18.193,8.166-18.193,18.202v31.872
			c0,10.035,8.166,18.193,18.193,18.193h15.94V179.9C115.635,198.656,102.4,225.775,102.4,256c0,30.225,13.235,57.353,34.133,76.109
			v43.358h-15.94c-10.027,0-18.193,8.166-18.193,18.202v31.872c0,10.035,8.166,18.193,18.193,18.193h15.94v50.074
			c0,10.035,8.166,18.193,18.193,18.193h100.139c10.035,0,18.202-8.158,18.202-18.193v-50.074h15.932
			c10.035,0,18.202-8.158,18.202-18.193v-31.872c0-10.035-8.166-18.202-18.202-18.202h-15.932v-43.273
			c14.686-13.167,25.617-30.566,30.754-50.594H384c14.114,0,25.6-11.477,25.6-25.6C409.6,241.886,398.114,230.4,384,230.4z
			 M120.593,119.467c-0.623,0-1.126-0.503-1.126-1.126V86.468c0-0.623,0.503-1.135,1.126-1.135h24.474h119.467h24.465
			c0.623,0,1.135,0.512,1.135,1.135v31.872c0,0.623-0.512,1.126-1.135,1.126h-24.465H145.067H120.593z M288.998,392.533
			c0.623,0,1.135,0.512,1.135,1.135v31.872c0,0.623-0.512,1.126-1.135,1.126h-24.465H145.067h-24.474
			c-0.623,0-1.126-0.503-1.126-1.126v-31.872c0-0.623,0.503-1.135,1.126-1.135h24.474h119.467H288.998z M204.8,298.667
			c13.884,0,26.112-6.767,33.911-17.067h47.445c-5.257,16.811-15.514,31.147-28.86,41.591c-0.973,0.76-1.954,1.519-2.97,2.236
			c-0.87,0.631-1.775,1.229-2.679,1.826c-1.101,0.725-2.219,1.434-3.354,2.099c-0.828,0.503-1.681,0.981-2.551,1.459
			c-1.28,0.7-2.577,1.365-3.9,1.997c-0.751,0.367-1.51,0.734-2.287,1.084c-1.493,0.666-3.012,1.271-4.531,1.852
			c-0.657,0.247-1.306,0.512-1.963,0.742c-1.698,0.589-3.405,1.109-5.129,1.604c-0.563,0.154-1.101,0.333-1.655,0.478
			c-1.835,0.478-3.695,0.862-5.564,1.22c-0.486,0.094-0.964,0.213-1.468,0.299c-1.929,0.333-3.866,0.563-5.82,0.768
			c-0.461,0.043-0.913,0.128-1.382,0.162c-2.398,0.213-4.821,0.316-7.245,0.316c-2.722,0-5.393-0.154-8.038-0.401
			c-1.058-0.102-2.099-0.273-3.14-0.41c-1.57-0.213-3.132-0.427-4.668-0.717c-1.229-0.239-2.458-0.521-3.669-0.811
			c-1.348-0.316-2.679-0.648-4.002-1.032c-1.22-0.35-2.415-0.725-3.618-1.126c-1.348-0.452-2.68-0.947-4.002-1.468
			c-1.075-0.418-2.142-0.836-3.2-1.306c-1.545-0.683-3.063-1.425-4.565-2.202c-0.759-0.384-1.536-0.751-2.287-1.169
			c-2.125-1.178-4.198-2.432-6.212-3.78c-0.102-0.068-0.213-0.128-0.316-0.196c-22.682-15.36-37.615-41.318-37.615-70.716
			c0-29.389,14.933-55.347,37.615-70.707c0.102-0.068,0.213-0.128,0.316-0.196c2.014-1.348,4.087-2.603,6.212-3.78
			c0.751-0.418,1.527-0.785,2.287-1.169c1.502-0.777,3.021-1.519,4.565-2.202c1.058-0.469,2.125-0.887,3.2-1.306
			c1.323-0.521,2.654-1.015,4.002-1.468c1.203-0.41,2.398-0.777,3.618-1.135c1.323-0.375,2.654-0.708,4.002-1.024
			c1.212-0.29,2.441-0.58,3.669-0.811c1.536-0.29,3.098-0.503,4.668-0.717c1.041-0.137,2.082-0.307,3.14-0.41
			c2.645-0.247,5.316-0.41,8.038-0.41c2.423,0,4.847,0.111,7.245,0.324c0.469,0.034,0.922,0.119,1.382,0.162
			c1.954,0.205,3.891,0.435,5.82,0.759c0.503,0.094,0.981,0.213,1.468,0.307c1.869,0.358,3.729,0.742,5.564,1.22
			c0.555,0.145,1.092,0.324,1.655,0.478c1.724,0.486,3.43,1.007,5.129,1.604c0.657,0.23,1.306,0.495,1.963,0.742
			c1.519,0.58,3.038,1.186,4.531,1.852c0.777,0.35,1.536,0.717,2.287,1.075c1.323,0.64,2.62,1.306,3.9,2.005
			c0.87,0.478,1.724,0.956,2.551,1.459c1.135,0.666,2.253,1.374,3.354,2.099c0.905,0.597,1.809,1.195,2.679,1.826
			c1.016,0.717,1.997,1.476,2.97,2.236c13.346,10.445,23.603,24.781,28.86,41.583h-47.445c-7.799-10.3-20.028-17.067-33.911-17.067
			c-23.526,0-42.667,19.149-42.667,42.667C162.133,279.526,181.274,298.667,204.8,298.667z"/>
	</g>
</g>
<g>
</g>
<g>
</g>
<g>
</g>
<g>
</g>
<g>
</g>
<g>
</g>
<g>
</g>
<g>
</g>
<g>
</g>
<g>
</g>
<g>
</g>
<g>
</g>
<g>
</g>
<g>
</g>
<g>
</g>
</svg>
