<?xml version="1.0" encoding="iso-8859-1"?>
<!-- Generator: Adobe Illustrator 18.0.0, SVG Export Plug-In . SVG Version: 6.00 Build 0)  -->
<!DOCTYPE svg PUBLIC "-//W3C//DTD SVG 1.1//EN" "http://www.w3.org/Graphics/SVG/1.1/DTD/svg11.dtd">
<svg version="1.1" id="Capa_1" xmlns="http://www.w3.org/2000/svg" xmlns:xlink="http://www.w3.org/1999/xlink" x="0px" y="0px"
	 viewBox="0 0 487.961 487.961" style="enable-background:new 0 0 487.961 487.961;" xml:space="preserve">
<g>
	<path d="M198.623,185.837c0.724,0.482,1.542,0.712,2.351,0.712c1.374,0,2.724-0.665,3.542-1.895
		c12.521-18.818,27.418-33.068,44.277-42.355c2.056-1.133,2.805-3.717,1.672-5.773c-1.132-2.056-3.716-2.805-5.773-1.672
		c-18.068,9.953-33.966,25.123-47.252,45.091C196.139,181.899,196.669,184.537,198.623,185.837z"/>
	<path d="M4.25,393.773c15.856,0,23.88-3.43,31.641-6.747c7.295-3.118,14.185-6.063,28.3-6.063c14.114,0,21.004,2.945,28.299,6.063
		c7.761,3.317,15.786,6.748,31.643,6.748c15.853,0,23.876-3.43,31.635-6.747c7.294-3.118,14.184-6.063,28.297-6.063
		c14.113,0,21.003,2.945,28.296,6.063c7.76,3.317,15.784,6.747,31.637,6.747c15.853,0,23.876-3.43,31.636-6.747
		c7.293-3.118,14.183-6.063,28.296-6.063c14.113,0,21.002,2.945,28.296,6.063c7.76,3.317,15.784,6.747,31.638,6.747
		c15.851,0,23.873-3.43,31.632-6.747c7.292-3.118,14.181-6.063,28.292-6.063c14.11,0,20.998,2.945,28.29,6.063
		c7.759,3.316,15.781,6.747,31.632,6.747c2.348,0,4.25-1.902,4.25-4.25c0-2.348-1.902-4.25-4.25-4.25
		c-14.11,0-20.998-2.945-28.29-6.063c-7.759-3.316-15.781-6.747-31.632-6.747c-15.853,0-23.875,3.431-31.634,6.748
		c-7.292,3.117-14.181,6.063-28.29,6.063c-14.113,0-21.002-2.945-28.296-6.063c-7.76-3.317-15.784-6.747-31.638-6.747
		c-15.854,0-23.878,3.431-31.638,6.748c-3.767,1.609-7.433,3.17-12.034,4.307c0.703-66.841,16.309-92.983,24.828-102.297v3.027
		c0,4.646,3.779,8.426,8.424,8.426h54.123c4.645,0,8.424-3.78,8.424-8.426v-3.273h126.564c2.348,0,4.25-1.902,4.25-4.25
		c0-2.348-1.902-4.25-4.25-4.25H356.059v-13h105.926c2.348,0,4.25-1.902,4.25-4.25c0-2.348-1.902-4.25-4.25-4.25H356.059v-21.5
		h16.26c2.348,0,4.25-1.902,4.25-4.25c0-2.348-1.902-4.25-4.25-4.25h-16.26v-125.5h25.592c2.348,0,4.25-1.902,4.25-4.25
		c0-2.348-1.902-4.25-4.25-4.25h-25.592v-19h126.471c2.348,0,4.25-1.902,4.25-4.25c0-2.348-1.902-4.25-4.25-4.25H356.059v-3.275
		c0-4.645-3.779-8.424-8.424-8.424h-54.123c-4.645,0-8.424,3.779-8.424,8.424v17.465c-11.602,0.946-45.101,6.559-78.627,39.56
		c-23.284,22.919-41.798,54.486-55.028,93.823c-16.16,48.049-24.458,107.992-24.688,178.19c-0.843,0.023-1.711,0.036-2.611,0.036
		c-14.117,0-21.007-2.945-28.302-6.063c-7.761-3.317-15.786-6.747-31.64-6.747c-15.855,0-23.88,3.43-31.641,6.747
		c-7.295,3.118-14.185,6.063-28.3,6.063c-2.347,0-4.25,1.902-4.25,4.25C0,391.871,1.903,393.773,4.25,393.773z M293.588,56.275
		h14.48v106.283c0,2.348,1.902,4.25,4.25,4.25c2.348,0,4.25-1.902,4.25-4.25V56.275h30.99v227.899h-53.971V56.275z M212.17,119.531
		c30.783-30.435,61.981-36.205,72.918-37.299v187.709c-7.345,4.858-32.708,27.936-33.337,114.986
		c-2.332,0.219-4.887,0.346-7.751,0.346c-14.113,0-21.002-2.945-28.296-6.063c-7.76-3.317-15.784-6.747-31.637-6.747
		c-11.364,0-18.698,1.766-24.803,3.985c0.397-45.58,5.256-75.858,10.017-99.557c0.462-2.301-1.029-4.541-3.33-5.004
		c-2.301-0.455-4.541,1.029-5.004,3.33c-7.002,34.86-10.069,66.334-10.199,104.708c-4.495,1.898-9.065,3.649-15.498,4.601
		C135.895,227.869,177.346,153.963,212.17,119.531z"/>
	<path d="M483.711,431.686c-14.11,0-20.998-2.945-28.29-6.064c-7.759-3.316-15.781-6.747-31.632-6.747
		c-15.853,0-23.875,3.431-31.634,6.748c-7.292,3.117-14.181,6.063-28.29,6.063c-14.113,0-21.002-2.945-28.296-6.064
		c-7.76-3.317-15.784-6.747-31.638-6.747c-15.854,0-23.878,3.431-31.638,6.748c-7.293,3.117-14.182,6.063-28.294,6.063
		c-14.113,0-21.002-2.945-28.296-6.064c-7.76-3.317-15.784-6.747-31.637-6.747c-15.854,0-23.878,3.431-31.639,6.748
		c-7.294,3.117-14.182,6.063-28.294,6.063c-14.117,0-21.007-2.945-28.302-6.064c-7.761-3.317-15.786-6.747-31.64-6.747
		c-15.855,0-23.88,3.43-31.641,6.747c-7.295,3.118-14.185,6.064-28.3,6.064c-2.347,0-4.25,1.902-4.25,4.25
		c0,2.348,1.903,4.25,4.25,4.25c15.856,0,23.88-3.43,31.641-6.747c7.295-3.118,14.185-6.064,28.3-6.064
		c14.114,0,21.004,2.945,28.299,6.063c7.761,3.317,15.786,6.748,31.643,6.748c15.853,0,23.876-3.43,31.635-6.747
		c7.294-3.118,14.184-6.064,28.297-6.064c14.113,0,21.003,2.945,28.296,6.064c7.76,3.317,15.784,6.747,31.637,6.747
		c15.853,0,23.876-3.43,31.636-6.747c7.293-3.118,14.183-6.064,28.296-6.064c14.113,0,21.002,2.945,28.296,6.064
		c7.76,3.317,15.784,6.747,31.638,6.747c15.851,0,23.873-3.43,31.632-6.747c7.292-3.118,14.181-6.064,28.292-6.064
		c14.11,0,20.998,2.945,28.29,6.064c7.759,3.316,15.781,6.747,31.632,6.747c2.348,0,4.25-1.902,4.25-4.25
		C487.961,433.588,486.059,431.686,483.711,431.686z"/>
</g>
<g>
</g>
<g>
</g>
<g>
</g>
<g>
</g>
<g>
</g>
<g>
</g>
<g>
</g>
<g>
</g>
<g>
</g>
<g>
</g>
<g>
</g>
<g>
</g>
<g>
</g>
<g>
</g>
<g>
</g>
</svg>
