<?xml version="1.0" encoding="iso-8859-1"?>
<!-- Generator: Adobe Illustrator 19.0.0, SVG Export Plug-In . SVG Version: 6.00 Build 0)  -->
<svg version="1.1" id="Layer_1" xmlns="http://www.w3.org/2000/svg" xmlns:xlink="http://www.w3.org/1999/xlink" x="0px" y="0px"
	 viewBox="0 0 502 502" style="enable-background:new 0 0 502 502;" xml:space="preserve">
<g>
	<g>
		<g>
			<path d="M438.6,105.682h-30.26V93.875c0-5.523-4.478-10-10-10H295.453c-5.522,0-10,4.477-10,10v11.808H175.42
				c-67.282,0-122.02,54.738-122.02,122.02v108.851c0,5.523,4.478,10,10,10h106.241c5.522,0,10-4.477,10-10v-83.129
				c0-11.855,9.645-21.5,21.5-21.5h84.312v11.808c0,5.523,4.478,10,10,10H398.34c5.522,0,10-4.477,10-10v-11.808h30.26
				c5.522,0,10-4.477,10-10V115.682C448.6,110.159,444.122,105.682,438.6,105.682z M285.453,211.922h-84.311v0.001
				c-22.883,0-41.5,18.617-41.5,41.5v73.129H73.4v-98.851c0-56.254,45.766-102.02,102.02-102.02h110.033V211.922z M388.34,115.682
				v106.241v11.808h-82.887v-11.808V115.682v-11.808h82.887V115.682z M428.6,211.923h-20.26v-86.241h20.26V211.923z"/>
			<path d="M210.984,160.91h22.366c5.522,0,10-4.477,10-10c0-5.523-4.478-10-10-10h-22.366c-5.522,0-10,4.477-10,10
				C200.984,156.433,205.462,160.91,210.984,160.91z"/>
			<path d="M88.628,230.033c0,5.523,4.478,10,10,10c5.522,0,10-4.477,10-10c0-38.114,31.008-69.123,69.122-69.123
				c5.522,0,10-4.477,10-10c0-5.523-4.478-10-10-10C128.608,140.91,88.628,180.89,88.628,230.033z"/>
			<path d="M279.797,20h58.218v34.733c0,5.523,4.478,10,10,10c5.522,0,10-4.477,10-10V20h58.219c5.522,0,10-4.477,10-10
				s-4.478-10-10-10H279.797c-5.522,0-10,4.477-10,10S274.274,20,279.797,20z"/>
			<path d="M110.93,385.824c-3.438,0-6.636,1.767-8.466,4.677c-5.366,8.536-32.136,52.068-32.136,70.897
				c0,22.388,18.214,40.602,40.602,40.602s40.602-18.214,40.602-40.602c0-18.83-26.77-62.362-32.136-70.897
				C117.565,387.59,114.368,385.824,110.93,385.824z M110.93,482c-11.359,0-20.602-9.242-20.602-20.602
				c0-6.902,9.613-27.002,20.602-46.144c10.988,19.142,20.602,39.242,20.602,46.144C131.531,472.758,122.289,482,110.93,482z"/>
		</g>
	</g>
</g>
<g>
</g>
<g>
</g>
<g>
</g>
<g>
</g>
<g>
</g>
<g>
</g>
<g>
</g>
<g>
</g>
<g>
</g>
<g>
</g>
<g>
</g>
<g>
</g>
<g>
</g>
<g>
</g>
<g>
</g>
</svg>
